<?xml version="1.0" encoding="utf-8"?>
<svg xmlns="http://www.w3.org/2000/svg" xmlns:svg="http://www.w3.org/2000/svg" version="1.1" viewBox="0 0 1400 440">
	<title>The titlepage for the Standard Ebooks edition of Armageddon 2419 A.D., by Philip Francis Nowlan</title>
	<g aria-label="ARMAGEDDON">
		<path d="m 356.63888,52.807016 h -16.2807 L 309.20029,130 h 18.90058 l 5.7076,-15.4386 h 29.38012 L 368.89619,130 h 18.90059 z m 0.56141,46.31579 h -17.40351 l 8.60818,-22.45614 h 0.18714 z"/>
		<path d="M 395.71637,52.807016 V 130 h 17.59064 V 99.497075 L 436.88596,130 h 22.36257 l -26.5731,-31.906433 c 9.4503,-2.994152 15.81287,-10.760234 15.81287,-22.362574 0,-15.157895 -10.8538,-22.923977 -25.16959,-22.923977 z m 17.59064,34.245615 V 66.842104 h 2.05848 c 6.64328,0 14.59649,0.467836 14.59649,10.105263 0,9.637428 -7.95321,10.105264 -14.59649,10.105264 z"/>
		<path d="m 531.59796,130 h 17.59065 L 542.26463,52.807016 H 523.55118 L 506.42837,97.345029 489.30556,52.807016 H 470.59211 L 463.66814,130 h 17.59064 l 3.64912,-45.754387 h 0.46784 l 15.81286,45.286547 h 10.47954 L 527.481,84.245613 h 0.46784 z"/>
		<path d="m 600.44006,52.807016 h -16.2807 L 553.00146,130 h 18.90059 l 5.7076,-15.4386 h 29.38012 L 612.69737,130 h 18.90059 z m 0.5614,46.31579 h -17.4035 l 8.60818,-22.45614 h 0.18714 z"/>
		<path d="M 709.31872,86.771929 H 673.6696 v 13.567251 h 17.77777 c 0,9.45029 -8.32748,14.87719 -16.74854,14.87719 -10.8538,0 -19.64912,-10.66666 -19.64912,-23.766078 0,-13.380117 8.79532,-24.140352 19.64912,-24.140352 6.83041,0 12.72515,2.713451 17.21638,9.918129 L 703.42398,64.59649 c -6.73684,-8.140351 -16.18713,-13.192983 -29.75438,-13.192983 -21.70761,0 -37.61404,17.871346 -37.61404,40.046785 0,22.081868 16.8421,39.953218 37.61404,39.953218 15.15789,0 31.43859,-8.32749 35.64912,-27.88304 z"/>
		<path d="M 766.16667,52.807016 H 722.00293 V 130 h 44.16374 v -15.4386 h -26.5731 V 99.029239 h 25.4503 V 83.590642 h -25.4503 V 68.245613 h 26.5731 z"/>
		<path d="M 781.27924,52.807016 V 130 h 22.36257 c 21.23977,0 38.92398,-16.09357 38.92398,-38.643276 0,-22.45614 -17.77778,-38.549708 -38.92398,-38.549708 z M 798.86988,114.2807 V 68.526315 h 2.71345 c 13.09942,0 21.9883,10.011696 21.9883,22.923977 -0.0936,12.912278 -8.98245,22.830408 -21.9883,22.830408 z"/>
		<path d="M 855.35822,52.807016 V 130 h 22.36257 c 21.23977,0 38.92398,-16.09357 38.92398,-38.643276 0,-22.45614 -17.77778,-38.549708 -38.92398,-38.549708 z M 872.94886,114.2807 V 68.526315 h 2.71345 c 13.09941,0 21.9883,10.011696 21.9883,22.923977 -0.0936,12.912278 -8.98245,22.830408 -21.9883,22.830408 z"/>
		<path d="m 925.97515,91.356724 c 0,22.549706 16.09356,40.046786 38.92397,40.046786 22.17544,0 38.83038,-17.49708 38.83038,-40.046786 0,-22.549708 -17.40348,-39.953217 -38.83038,-39.953217 -21.23976,0 -38.92397,17.403509 -38.92397,39.953217 z m 18.99415,0 c 0,-11.508772 6.36257,-23.017544 19.92982,-23.017544 13.66082,0 19.83626,11.508772 19.83626,23.017544 0,11.508776 -5.80117,23.017546 -19.83626,23.017546 -14.40935,0 -19.92982,-11.50877 -19.92982,-23.017546 z"/>
		<path d="m 1034.0819,82.093566 h 0.1871 L 1064.959,130 h 17.5907 V 52.807016 h -17.5907 v 47.906434 h -0.1871 l -30.69,-47.906434 h -17.5907 V 130 h 17.5907 z"/>
	</g>
	<g aria-label="2419 A.D.">
		<path d="m 479.31579,166.2807 c 10.29239,0 10.94736,9.45029 10.94736,12.25731 0,14.22222 -39.76608,47.06433 -39.76608,47.06433 V 230 h 60.16375 v -15.4386 h -28.63158 c 0,0 27.22807,-17.96491 27.22807,-36.02339 0,-9.73099 -3.46199,-27.1345 -29.94152,-27.1345 -20.95907,0 -28.44445,22.45614 -28.44445,22.45614 l 14.69006,7.11111 c 0,0 5.33333,-14.69006 13.75439,-14.69006 z"/>
		<path d="m 573.00877,198.2807 v -45.47368 h -17.40351 l -37.05263,55.67251 v 5.23977 h 37.98831 V 230 h 16.46783 v -16.2807 h 8.98246 v -15.4386 z m -16.46783,-21.9883 v 21.9883 h -13.94152 l 13.75438,-21.9883 z"/>
		<path d="m 590.92251,184.43275 12.72514,-8.23392 V 230 h 17.59065 v -77.19298 h -8.32749 l -21.9883,14.22222 z"/>
		<path d="m 641.96784,230 h 21.7076 l 18.15205,-21.61404 c 8.04678,-10.94736 12.16374,-17.21637 12.16374,-30.78362 0,-14.78363 -13.47368,-26.19883 -30.78362,-26.19883 -13.94152,0 -28.63158,7.95321 -28.63158,26.19883 0,17.96491 14.03509,27.04093 24.60818,27.04093 3.55556,0 5.52047,-1.1228 5.52047,-1.1228 z m 33.77778,-52.39766 c 0,6.92397 -5.23977,11.97661 -11.69591,11.97661 -6.64327,0 -11.88304,-5.05264 -11.88304,-11.97661 0,-6.73684 5.05263,-11.69591 11.88304,-11.69591 6.83041,0 11.69591,4.95907 11.69591,11.69591 z"/>
		<path d="m 776.68274,152.80702 h -16.2807 L 729.24414,230 h 18.90059 l 5.7076,-15.4386 h 29.38012 L 788.94005,230 h 18.90059 z m 0.5614,46.31579 h -17.40351 l 8.60819,-22.45614 h 0.18714 z"/>
		<path d="m 826.42689,209.97661 c -5.89473,0 -10.66666,4.77193 -10.66666,10.76023 0,5.89474 4.77193,10.66667 10.66666,10.66667 5.98831,0 10.76024,-4.77193 10.76024,-10.66667 0,-5.9883 -4.77193,-10.76023 -10.76024,-10.76023 z"/>
		<path d="M 853.47223,152.80702 V 230 h 22.36258 c 21.23976,0 38.92397,-16.09357 38.92397,-38.64328 0,-22.45614 -17.77777,-38.5497 -38.92397,-38.5497 z m 17.59065,61.47368 v -45.75439 h 2.71345 c 13.09941,0 21.9883,10.0117 21.9883,22.92398 -0.0936,12.91228 -8.98246,22.83041 -21.9883,22.83041 z"/>
		<path d="m 938.21785,209.97661 c -5.89474,0 -10.66667,4.77193 -10.66667,10.76023 0,5.89474 4.77193,10.66667 10.66667,10.66667 5.9883,0 10.76023,-4.77193 10.76023,-10.66667 0,-5.9883 -4.77193,-10.76023 -10.76023,-10.76023 z"/>
	</g>
	<g aria-label="PHILIP FRANCIS NOWLAN">
		<path d="M 184.70669,332.10526 V 390 h 13.19299 v -21.47368 h 7.92982 c 11.29825,0 19.78947,-6.66667 19.78947,-18.5965 0,-11.99999 -8.49122,-17.82456 -19.78947,-17.82456 z M 197.89968,358 v -15.36842 h 3.71929 c 5.19299,0 10.10527,1.75439 10.10527,7.7193 0,5.89473 -4.91228,7.64912 -10.10527,7.64912 z"/>
		<path d="m 249.63761,366.77193 h 18.66667 V 390 h 13.19298 v -57.89474 h -13.19298 v 23.08772 H 249.63761 V 332.10526 H 236.44463 V 390 h 13.19298 z"/>
		<path d="M 308.09155,332.10526 H 294.89857 V 390 h 13.19298 z"/>
		<path d="M 334.74726,332.10526 H 321.55427 V 390 h 33.12281 v -11.57895 h -19.92982 z"/>
		<path d="M 379.358,332.10526 H 366.16502 V 390 H 379.358 Z"/>
		<path d="M 392.82072,332.10526 V 390 h 13.19298 v -21.47368 h 7.92983 c 11.29824,0 19.78947,-6.66667 19.78947,-18.5965 0,-11.99999 -8.49123,-17.82456 -19.78947,-17.82456 z M 406.0137,358 v -15.36842 h 3.7193 c 5.19298,0 10.10527,1.75439 10.10527,7.7193 0,5.89473 -4.91229,7.64912 -10.10527,7.64912 z"/>
		<path d="M 502.22093,332.10526 H 468.74725 V 390 h 13.19298 v -23.22807 h 18.73685 v -11.57895 h -18.73685 v -11.50877 h 20.2807 z"/>
		<path d="M 513.49505,332.10526 V 390 h 13.19299 V 367.12281 L 544.37225,390 h 16.77193 L 541.21435,366.07018 C 548.30207,363.82456 553.074,358 553.074,349.29825 c 0,-11.36842 -8.14035,-17.19299 -18.87719,-17.19299 z m 13.19299,25.68421 v -15.15789 h 1.54386 c 4.98245,0 10.94736,0.35088 10.94736,7.57895 0,7.22807 -5.96491,7.57894 -10.94736,7.57894 z"/>
		<path d="M 598.20011,332.10526 H 585.98958 L 562.62116,390 h 14.17544 l 4.2807,-11.57895 h 22.03509 L 607.39309,390 h 14.17544 z m 0.42105,34.73685 H 585.56853 L 592.02467,350 h 0.14035 z"/>
		<path d="m 641.95119,354.07018 h 0.14035 L 665.10908,390 h 13.19299 v -57.89474 h -13.19299 v 35.92983 h -0.14035 L 641.95119,332.10526 H 628.75821 V 390 h 13.19298 z"/>
		<path d="m 720.34922,378.07018 c -13.26316,0 -19.08772,-9.26316 -19.08772,-17.05264 0,-7.71929 5.82456,-16.98245 19.08772,-16.98245 6.73684,0 11.36842,3.57895 11.36842,3.57895 l 5.61404,-11.22807 c 0,0 -6.45614,-5.33334 -19.01755,-5.33334 -16.42105,0 -31.36842,13.47369 -31.36842,30.10527 0,16.5614 15.01755,29.89473 31.36842,29.89473 12.56141,0 19.01755,-5.33333 19.01755,-5.33333 l -5.61404,-11.22807 c 0,0 -4.63158,3.57895 -11.36842,3.57895 z"/>
		<path d="M 760.64089,332.10526 H 747.4479 V 390 h 13.19299 z"/>
		<path d="m 794.06633,331.05263 c -9.33333,0 -18.87719,6.8772 -18.87719,17.68421 0,6.03509 4.07017,11.4386 11.01754,14.8772 6.8772,3.43859 13.05263,5.33333 13.05263,9.54385 0,5.40351 -5.47368,5.68422 -8.35087,5.68422 -6.45614,0 -14.17544,-6.52632 -14.17544,-6.52632 l -6.59649,11.08772 c 0,0 8.21052,7.64912 21.75438,7.64912 11.29825,0 21.82456,-4.8421 21.82456,-18.66666 0,-7.57895 -7.08771,-13.05264 -13.54385,-15.78948 -6.5965,-2.80702 -12.07018,-5.12281 -12.07018,-8.35088 0,-3.15789 2.38596,-5.19298 6.87719,-5.19298 5.96492,0 11.7193,4 11.7193,4 l 5.33333,-10.52631 c 0,0 -7.43859,-5.47369 -17.96491,-5.47369 z"/>
		<path d="m 862.26369,354.07018 h 0.14035 L 885.42158,390 h 13.19299 v -57.89474 h -13.19299 v 35.92983 h -0.14035 L 862.26369,332.10526 H 849.07071 V 390 h 13.19298 z"/>
		<path d="m 909.45121,361.01754 c 0,16.91228 12.07017,30.03509 29.19298,30.03509 16.63158,0 29.1228,-13.12281 29.1228,-30.03509 0,-16.91228 -13.05263,-29.96491 -29.1228,-29.96491 -15.92983,0 -29.19298,13.05263 -29.19298,29.96491 z m 14.24561,0 c 0,-8.63157 4.77193,-17.26315 14.94737,-17.26315 10.24561,0 14.87719,8.63158 14.87719,17.26315 0,8.63158 -4.35088,17.26316 -14.87719,17.26316 -10.80702,0 -14.94737,-8.63158 -14.94737,-17.26316 z"/>
		<path d="m 1020.8163,390 h 14.5965 l 16.4913,-57.89474 h -14.5965 l -9.8948,39.7193 h -0.3508 l -10.5264,-39.7193 h -9.9649 l -10.52629,39.7193 h -0.35087 l -9.89474,-39.7193 H 971.13213 L 987.62336,390 H 1002.29 l 9.2632,-32.49123 z"/>
		<path d="m 1073.2615,332.10526 h -13.193 V 390 h 33.1228 v -11.57895 h -19.9298 z"/>
		<path d="m 1135.1793,332.10526 h -12.2105 L 1099.6003,390 h 14.1755 l 4.2807,-11.57895 h 22.0351 L 1144.3723,390 h 14.1754 z m 0.421,34.73685 h -13.0526 L 1129.0039,350 h 0.1403 z"/>
		<path d="m 1178.9304,354.07018 h 0.1403 L 1202.0883,390 h 13.193 v -57.89474 h -13.193 v 35.92983 h -0.1404 l -23.0175,-35.92983 h -13.193 V 390 h 13.193 z"/>
	</g>
</svg>
